<?xml version="1.0" encoding="UTF-8" standalone="no"?>
<!-- Created with Inkscape (http://www.inkscape.org/) -->

<svg
   xmlns:dc="http://purl.org/dc/elements/1.1/"
   xmlns:cc="http://creativecommons.org/ns#"
   xmlns:rdf="http://www.w3.org/1999/02/22-rdf-syntax-ns#"
   xmlns:svg="http://www.w3.org/2000/svg"
   xmlns="http://www.w3.org/2000/svg"
   xmlns:sodipodi="http://sodipodi.sourceforge.net/DTD/sodipodi-0.dtd"
   xmlns:inkscape="http://www.inkscape.org/namespaces/inkscape"
   width="118.7695mm"
   height="32.961994mm"
   viewBox="0 0 118.7695 32.961994"
   version="1.1"
   id="svg8"
   inkscape:version="0.92.4 (5da689c313, 2019-01-14)"
   sodipodi:docname="vaia_front_-1.svg">
  <defs
     id="defs2" />
  <sodipodi:namedview
     id="base"
     pagecolor="#ffffff"
     bordercolor="#666666"
     borderopacity="1.0"
     inkscape:pageopacity="0.0"
     inkscape:pageshadow="2"
     inkscape:zoom="0.35"
     inkscape:cx="132.13174"
     inkscape:cy="95.245089"
     inkscape:document-units="mm"
     inkscape:current-layer="layer1"
     showgrid="false"
     inkscape:window-width="1920"
     inkscape:window-height="950"
     inkscape:window-x="-9"
     inkscape:window-y="-9"
     inkscape:window-maximized="1"
     fit-margin-left="1"
     fit-margin-top="1"
     fit-margin-bottom="1"
     fit-margin-right="1" />
  <metadata
     id="metadata5">
    <rdf:RDF>
      <cc:Work
         rdf:about="">
        <dc:format>image/svg+xml</dc:format>
        <dc:type
           rdf:resource="http://purl.org/dc/dcmitype/StillImage" />
        <dc:title></dc:title>
      </cc:Work>
    </rdf:RDF>
  </metadata>
  <g
     inkscape:label="Livello 1"
     inkscape:groupmode="layer"
     id="layer1"
     transform="translate(-44.415731,-26.460319)">
    <g
       id="g3742"
       transform="translate(25.40825,25.144239)">
      <path
         style="fill:#397b20;stroke-width:0.17638889"
         d="m 99.364701,22.289368 c -0.065,-0.05597 -58.718753,-0.285431 -73.051262,-0.285789 l -6.305903,-1.57e-4 v -1.243575 -1.243574 l 2.601736,0.09506 c 1.430955,0.05229 18.595799,0.135799 38.144098,0.185588 19.548301,0.04979 44.65064,0.142557 55.78299,0.206153 l 20.24062,0.115628 v 1.12029 1.120288 l -18.67096,-0.0047 C 107.837,22.35198 99.403401,22.32265 99.364701,22.28934 Z m -58.32279,-4.475896 -21.034375,-0.04481 -2.8e-5,-1.189911 -2.7e-5,-1.18991 25.620513,0.03828 c 14.091283,0.02105 28.735983,0.08988 32.543777,0.152956 l 6.92327,0.114681 v 1.128208 1.128208 l -11.50938,-0.04644 c -6.330156,-0.02554 -20.974844,-0.06661 -32.54375,-0.09125 z M 20.007536,12.302033 v -1.234722 h 13.934722 13.934723 v 1.234722 1.234723 H 33.942258 20.007536 Z m 0,-4.2333335 v -1.234722 h 12.523611 12.523611 v 1.234722 1.234722 H 32.531147 20.007536 Z m 0,-4.233333 v -1.234722 h 11.377083 11.377084 v 1.234722 1.234722 H 31.384619 20.007536 Z"
         id="path3746"
         inkscape:connector-curvature="0"
         sodipodi:nodetypes="csccccssccccccccccsscccsccccccccccccccccccccccccccccc" />
    </g>
    <flowRoot
       xml:space="preserve"
       id="flowRoot820"
       style="font-style:normal;font-variant:normal;font-weight:normal;font-stretch:normal;font-size:38.81623077px;line-height:1.25;font-family:'Arial Rounded MT Bold';-inkscape-font-specification:'Arial Rounded MT Bold, Normal';font-variant-ligatures:normal;font-variant-caps:normal;font-variant-numeric:normal;font-feature-settings:normal;text-align:start;letter-spacing:0px;word-spacing:0px;writing-mode:lr-tb;text-anchor:start;fill:#aa0000;fill-opacity:1;stroke:none"
       transform="matrix(0.41476587,0,0,0.40000064,-47.980552,-19.949748)"><flowRegion
         id="flowRegion822"
         style="font-style:normal;font-variant:normal;font-weight:normal;font-stretch:normal;font-size:38.81623077px;font-family:'Arial Rounded MT Bold';-inkscape-font-specification:'Arial Rounded MT Bold, Normal';font-variant-ligatures:normal;font-variant-caps:normal;font-variant-numeric:normal;font-feature-settings:normal;text-align:start;writing-mode:lr-tb;text-anchor:start;fill:#aa0000"><rect
           id="rect824"
           width="350"
           height="67.85714"
           x="287.85715"
           y="111.8054"
           style="font-style:normal;font-variant:normal;font-weight:normal;font-stretch:normal;font-size:38.81623077px;font-family:'Arial Rounded MT Bold';-inkscape-font-specification:'Arial Rounded MT Bold, Normal';font-variant-ligatures:normal;font-variant-caps:normal;font-variant-numeric:normal;font-feature-settings:normal;text-align:start;writing-mode:lr-tb;text-anchor:start;fill:#aa0000" /></flowRegion><flowPara
         id="flowPara826">VAIA </flowPara></flowRoot>    <flowRoot
       xml:space="preserve"
       id="flowRoot828"
       style="font-style:normal;font-variant:normal;font-weight:normal;font-stretch:normal;font-size:36.02642822px;line-height:1.25;font-family:'Arial Rounded MT Bold';-inkscape-font-specification:'Arial Rounded MT Bold, Normal';font-variant-ligatures:normal;font-variant-caps:normal;font-variant-numeric:normal;font-feature-settings:normal;text-align:start;letter-spacing:0px;word-spacing:0px;writing-mode:lr-tb;text-anchor:start;fill:#aa0000;fill-opacity:1;stroke:none"
       transform="matrix(0.37992208,0,0,0.4038178,-44.210598,-14.021928)"><flowRegion
         id="flowRegion830"
         style="font-style:normal;font-variant:normal;font-weight:normal;font-stretch:normal;font-size:36.02642822px;font-family:'Arial Rounded MT Bold';-inkscape-font-specification:'Arial Rounded MT Bold, Normal';font-variant-ligatures:normal;font-variant-caps:normal;font-variant-numeric:normal;font-feature-settings:normal;text-align:start;writing-mode:lr-tb;text-anchor:start;fill:#aa0000"><rect
           id="rect832"
           width="248.57143"
           height="98.571426"
           x="415"
           y="108.94825"
           style="font-style:normal;font-variant:normal;font-weight:normal;font-stretch:normal;font-size:36.02642822px;font-family:'Arial Rounded MT Bold';-inkscape-font-specification:'Arial Rounded MT Bold, Normal';font-variant-ligatures:normal;font-variant-caps:normal;font-variant-numeric:normal;font-feature-settings:normal;text-align:start;writing-mode:lr-tb;text-anchor:start;fill:#aa0000" /></flowRegion><flowPara
         id="flowPara834">FRONT</flowPara></flowRoot>    <g
       id="g854"
       transform="matrix(0.1914992,0,0,0.19084783,44.50425,48.355893)">
      <path
         id="path6"
         d="m 41,4 c 9.67,0 19.33,0 29,0 0,3.67 0,7.33 0,11 -9.67,0 -19.33,0 -29,0 0,-3.67 0,-7.33 0,-11 z"
         inkscape:connector-curvature="0"
         style="fill:#b5101c" />
      <path
         id="path8"
         d="M 80.68,5.56 C 86.03,3.14 92.72,2.95 97.86,6 c 3.88,2.38 4.56,7.31 4.46,11.47 -2.57,0 -5.14,0 -7.7,0.01 -0.1,-2.14 -0.06,-4.62 -1.74,-6.23 -2.9,-2.52 -8.26,-2.15 -10.16,1.42 -1.45,3.1 -0.98,7.49 2.12,9.43 5.27,3.65 12.92,3.49 16.8,9.14 2.77,4.56 2.41,10.69 0.04,15.35 -2.37,4.48 -7.82,6.07 -12.56,6.12 C 84.86,52.93 80.16,52.19 77.08,48.97 74.01,45.81 73.55,41.19 73.45,37.01 76.01,37 78.58,37 81.15,37 c 0.14,3.04 0.24,6.73 3,8.67 3.45,2.08 9.15,1.63 10.99,-2.41 1.52,-3.51 0.49,-8.44 -3.19,-10.17 C 86.81,30.63 80.42,30.05 76.6,25.37 72.38,19.27 73.59,9.01 80.68,5.56 Z"
         inkscape:connector-curvature="0"
         style="fill:#231f20" />
      <path
         id="path10"
         d="M 4.76,4.76 C 15.07,4.75 25.39,4.77 35.7,4.75 c 0,3.5 0,7 0,10.5 -3.08,-0.01 -6.16,-0.01 -9.24,-0.01 0.03,12.15 -0.01,24.31 0.03,36.46 -4.16,-0.01 -8.32,0 -12.49,0 -0.01,-12.15 0.01,-24.31 0,-36.46 -3.08,0 -6.16,0 -9.24,0 0,-3.49 0,-6.99 0,-10.48 z"
         inkscape:connector-curvature="0"
         style="fill:#231f20" />
      <path
         id="path12"
         transform="scale(0.8)"
         d="m 148.15039,5.9375 c -5.7375,19.55 -11.36289,39.137109 -16.96289,58.724609 2.625,-0.025 5.24922,-0.03633 7.88672,-0.04883 1.3875,-5.3 2.85039,-10.575781 4.27539,-15.863281 h 18.45117 l 4.16211,15.863281 c 2.6,0.0125 5.21172,0.025 7.82422,0.0625 -5.15,-19.6 -10.51133,-39.150781 -15.73633,-58.738281 -3.3,0.0125 -6.60039,0.0125 -9.90039,0 z m 4.72461,8.761719 c 2.55,9.25 4.86172,18.550781 7.38672,27.800781 -5.1,0 -10.19883,0.01211 -15.29883,-0.02539 2.5375,-9.2875 5.36211,-18.48789 7.91211,-27.775391 z"
         inkscape:connector-curvature="0" />
      <path
         id="path14"
         d="m 142,4.76 c 8.16,-0.01 16.32,0.01 24.47,-0.01 0,1.75 0,3.5 0,5.25 -6.16,0 -12.31,0 -18.47,0 0,4.84 -0.01,9.69 0.01,14.53 5.82,-0.01 11.64,0 17.47,-0.01 -0.01,1.83 -0.01,3.65 -0.01,5.48 -5.82,0 -11.65,0 -17.47,0 0,7.23 0,14.47 0,21.7 -2,0 -4,0 -6,0 0,-15.65 0,-31.29 0,-46.94 z"
         inkscape:connector-curvature="0"
         style="fill:#231f20" />
      <path
         id="path18"
         d="m 41,22 c 9.33,0 18.67,0 28,0 0,3.67 0,7.33 0,11 -9.33,0 -18.67,0 -28,0 0,-3.67 0,-7.33 0,-11 z"
         inkscape:connector-curvature="0"
         style="fill:#b5101c" />
      <path
         id="path20"
         d="m 41,41 c 9.67,0 19.33,0 29,0 0,3.67 0,7.33 0,11 -9.67,0 -19.33,0 -29,0 0,-3.67 0,-7.33 0,-11 z"
         inkscape:connector-curvature="0"
         style="fill:#b5101c" />
    </g>
  </g>
</svg>
