<?xml version="1.0" encoding="UTF-8" standalone="no"?>
<!-- Created with Inkscape (http://www.inkscape.org/) -->

<svg
   xmlns:dc="http://purl.org/dc/elements/1.1/"
   xmlns:cc="http://creativecommons.org/ns#"
   xmlns:rdf="http://www.w3.org/1999/02/22-rdf-syntax-ns#"
   xmlns:svg="http://www.w3.org/2000/svg"
   xmlns="http://www.w3.org/2000/svg"
   xmlns:sodipodi="http://sodipodi.sourceforge.net/DTD/sodipodi-0.dtd"
   xmlns:inkscape="http://www.inkscape.org/namespaces/inkscape"
   width="66.456139mm"
   height="47.911514mm"
   viewBox="0 0 66.456139 47.911514"
   version="1.1"
   id="svg8"
   inkscape:version="0.92.4 (5da689c313, 2019-01-14)"
   sodipodi:docname="vaia_front_ico2.svg">
  <defs
     id="defs2" />
  <sodipodi:namedview
     id="base"
     pagecolor="#ffffff"
     bordercolor="#666666"
     borderopacity="1.0"
     inkscape:pageopacity="0.0"
     inkscape:pageshadow="2"
     inkscape:zoom="0.98994949"
     inkscape:cx="307.85426"
     inkscape:cy="78.03926"
     inkscape:document-units="mm"
     inkscape:current-layer="layer1"
     showgrid="false"
     inkscape:window-width="1920"
     inkscape:window-height="950"
     inkscape:window-x="-9"
     inkscape:window-y="-9"
     inkscape:window-maximized="1"
     fit-margin-top="1"
     fit-margin-left="1"
     fit-margin-right="1"
     fit-margin-bottom="1" />
  <metadata
     id="metadata5">
    <rdf:RDF>
      <cc:Work
         rdf:about="">
        <dc:format>image/svg+xml</dc:format>
        <dc:type
           rdf:resource="http://purl.org/dc/dcmitype/StillImage" />
        <dc:title></dc:title>
      </cc:Work>
    </rdf:RDF>
  </metadata>
  <g
     inkscape:label="Livello 1"
     inkscape:groupmode="layer"
     id="layer1"
     transform="translate(-44.172784,-26.301988)">
    <path
       style="fill:#397b20;stroke-width:0.17509952"
       d="m 66.143769,42.957711 -20.727984,-0.04481 -2.7e-5,-1.189911 -2.7e-5,-1.18991 25.247319,0.03828 c 13.886026,0.02105 28.317407,0.08988 32.06974,0.152956 l 6.82242,0.114681 v 1.128208 1.128208 l -11.341731,-0.04644 c -6.23795,-0.02554 -20.66932,-0.06661 -32.06971,-0.09125 z"
       id="path935" />
    <path
       style="fill:#397b20;stroke-width:0.17509952"
       d="M 45.415785,37.446272 V 36.21155 h 13.731746 13.731746 v 1.234722 1.234723 H 59.147531 45.415785 Z"
       id="path933" />
    <path
       style="fill:#397b20;stroke-width:0.17509952"
       d="m 45.415785,33.212938 v -1.234721 h 12.34119 12.341189 v 1.234721 1.234722 H 57.756975 45.415785 Z"
       id="path931" />
    <path
       style="fill:#397b20;stroke-width:0.17509952"
       d="M 45.415785,28.979605 V 27.744883 H 56.627147 67.83851 v 1.234722 1.234722 H 56.627147 45.415785 Z"
       id="path3746" />
    <g
       id="g898"
       transform="matrix(0.69592718,0,0,1,32.987207,-2.9367112)">
      <path
         style="fill:#397b20;stroke-width:0.16022722"
         d="m 110.02301,57.850182 v -1.23472 H 98.524845 87.026678 v 1.23472 1.23472 h 11.498167 11.498165 z"
         id="path875"
         inkscape:connector-curvature="0" />
      <path
         style="fill:#397b20;stroke-width:0.16022722"
         d="m 110.02301,53.616842 v -1.23472 H 99.68921 89.355426 v 1.23472 1.23473 h 10.333784 10.3338 z"
         id="path873"
         inkscape:connector-curvature="0" />
      <path
         style="fill:#397b20;stroke-width:0.16022722"
         d="m 110.02301,49.383513 v -1.234722 h -9.38775 -9.387735 v 1.234722 1.234722 h 9.387735 9.38775 z"
         id="path3746-0"
         inkscape:connector-curvature="0" />
    </g>
    <g
       aria-label="VAIA "
       transform="matrix(0.37386649,0,0,0.35349166,-36.468419,-16.749149)"
       style="font-style:normal;font-variant:normal;font-weight:normal;font-stretch:normal;font-size:53.33333588px;line-height:1.25;font-family:Calibri;-inkscape-font-specification:'Calibri, Normal';font-variant-ligatures:normal;font-variant-caps:normal;font-variant-numeric:normal;font-feature-settings:normal;text-align:start;letter-spacing:0px;word-spacing:0px;writing-mode:lr-tb;text-anchor:start;fill:#aa0000;fill-opacity:1;stroke:none"
       id="flowRoot820">
      <path
         d="m 305.95638,157.69011 q -0.10417,0.28645 -0.28646,0.46875 -0.18229,0.18229 -0.52083,0.28645 -0.3125,0.10417 -0.83333,0.13021 -0.4948,0.0521 -1.25,0.0521 -0.57292,0 -1.01563,-0.026 -0.41667,0 -0.72917,-0.0521 -0.3125,-0.0521 -0.54687,-0.10417 -0.20833,-0.0781 -0.36458,-0.18229 -0.15625,-0.10416 -0.26042,-0.23437 -0.0781,-0.15625 -0.15625,-0.36459 l -11.01563,-31.30208 q -0.20833,-0.57292 -0.23437,-0.91146 0,-0.36458 0.23437,-0.54687 0.23438,-0.1823 0.75521,-0.23438 0.52084,-0.0521 1.40625,-0.0521 0.72917,0 1.14584,0.0521 0.4427,0.026 0.67708,0.13021 0.23437,0.10417 0.33854,0.28646 0.13021,0.15625 0.23438,0.41666 l 9.66145,28.35938 h 0.026 l 9.40104,-28.30729 q 0.0781,-0.28646 0.18229,-0.46875 0.10417,-0.18229 0.36458,-0.28646 0.26042,-0.10417 0.72917,-0.13021 0.46875,-0.0521 1.25,-0.0521 0.80729,0 1.27604,0.0781 0.46875,0.0521 0.625,0.23438 0.18229,0.18229 0.13021,0.54687 -0.026,0.33854 -0.23438,0.91146 z"
         style=""
         id="path937" />
      <path
         d="m 345.38347,156.88281 q 0.20833,0.57292 0.20833,0.9375 0.026,0.33855 -0.18229,0.52084 -0.20833,0.18229 -0.70313,0.23437 -0.46875,0.0521 -1.27604,0.0521 -0.80729,0 -1.30208,-0.0521 -0.46875,-0.026 -0.72917,-0.10416 -0.23437,-0.10417 -0.36458,-0.26042 -0.10417,-0.15625 -0.20834,-0.39063 l -2.89062,-8.20312 h -14.01042 l -2.76041,8.09896 q -0.0781,0.23437 -0.20834,0.41666 -0.13021,0.15625 -0.39062,0.28646 -0.23438,0.10417 -0.70313,0.15625 -0.44271,0.0521 -1.17187,0.0521 -0.75521,0 -1.25,-0.0781 -0.46875,-0.0521 -0.67709,-0.23437 -0.18229,-0.1823 -0.18229,-0.52084 0.026,-0.36458 0.23438,-0.9375 l 11.30208,-31.30208 q 0.10417,-0.28646 0.26042,-0.46875 0.18229,-0.18229 0.49479,-0.28646 0.33854,-0.10417 0.83333,-0.13021 0.52084,-0.0521 1.30209,-0.0521 0.83333,0 1.3802,0.0521 0.54688,0.026 0.88542,0.13021 0.33854,0.10417 0.52083,0.3125 0.1823,0.18229 0.28646,0.46875 z M 330.87826,129.2526 h -0.026 l -5.8073,16.79688 h 11.71875 z"
         style=""
         id="path939" />
      <path
         d="m 355.46159,157.79427 q 0,0.20834 -0.10417,0.36459 -0.10416,0.15625 -0.36458,0.26041 -0.26042,0.0781 -0.70312,0.13021 -0.41667,0.0781 -1.06771,0.0781 -0.625,0 -1.06771,-0.0781 -0.44271,-0.0521 -0.70313,-0.13021 -0.26041,-0.10416 -0.36458,-0.26041 -0.10417,-0.15625 -0.10417,-0.36459 v -32.34375 q 0,-0.20833 0.10417,-0.36458 0.13021,-0.15625 0.39063,-0.23438 0.28645,-0.10416 0.70312,-0.15625 0.44271,-0.0781 1.04167,-0.0781 0.65104,0 1.06771,0.0781 0.4427,0.0521 0.70312,0.15625 0.26042,0.0781 0.36458,0.23438 0.10417,0.15625 0.10417,0.36458 z"
         style=""
         id="path941" />
      <path
         d="m 389.6543,156.88281 q 0.20833,0.57292 0.20833,0.9375 0.026,0.33855 -0.18229,0.52084 -0.20833,0.18229 -0.70312,0.23437 -0.46875,0.0521 -1.27604,0.0521 -0.8073,0 -1.30209,-0.0521 -0.46875,-0.026 -0.72916,-0.10416 -0.23438,-0.10417 -0.36459,-0.26042 -0.10416,-0.15625 -0.20833,-0.39063 l -2.89063,-8.20312 h -14.01041 l -2.76042,8.09896 q -0.0781,0.23437 -0.20833,0.41666 -0.13021,0.15625 -0.39063,0.28646 -0.23437,0.10417 -0.70312,0.15625 -0.44271,0.0521 -1.17188,0.0521 -0.75521,0 -1.25,-0.0781 -0.46875,-0.0521 -0.67708,-0.23437 -0.18229,-0.1823 -0.18229,-0.52084 0.026,-0.36458 0.23437,-0.9375 l 11.30209,-31.30208 q 0.10416,-0.28646 0.26041,-0.46875 0.18229,-0.18229 0.49479,-0.28646 0.33855,-0.10417 0.83334,-0.13021 0.52083,-0.0521 1.30208,-0.0521 0.83333,0 1.38021,0.0521 0.54687,0.026 0.88542,0.13021 0.33854,0.10417 0.52083,0.3125 0.18229,0.18229 0.28646,0.46875 z M 375.14909,129.2526 h -0.026 l -5.80729,16.79688 h 11.71875 z"
         style=""
         id="path943" />
    </g>
    <g
       aria-label="FRONT"
       transform="matrix(0.37992208,0,0,0.34328107,-113.53143,3.7716037)"
       style="font-style:normal;font-variant:normal;font-weight:normal;font-stretch:normal;font-size:48px;line-height:1.25;font-family:Calibri;-inkscape-font-specification:'Calibri, Normal';font-variant-ligatures:normal;font-variant-caps:normal;font-variant-numeric:normal;font-feature-settings:normal;text-align:start;letter-spacing:0px;word-spacing:0px;writing-mode:lr-tb;text-anchor:start;fill:#aa0000;fill-opacity:1;stroke:none"
       id="flowRoot828">
      <path
         d="m 434.96875,122.35547 q 0,0.44531 -0.0469,0.77344 -0.0469,0.32812 -0.16406,0.53906 -0.11719,0.1875 -0.28125,0.28125 -0.14062,0.0937 -0.30469,0.0937 H 423.0625 v 10.3125 h 10.5 q 0.16406,0 0.30469,0.0937 0.16406,0.0703 0.28125,0.25781 0.11718,0.1875 0.16406,0.51563 0.0469,0.30468 0.0469,0.79687 0,0.44531 -0.0469,0.77344 -0.0469,0.30469 -0.16406,0.51562 -0.11719,0.1875 -0.28125,0.30469 -0.14063,0.0937 -0.30469,0.0937 h -10.5 v 12.63281 q 0,0.16407 -0.0937,0.32813 -0.0937,0.14062 -0.32813,0.23437 -0.23437,0.0703 -0.60937,0.11719 -0.375,0.0703 -0.98438,0.0703 -0.5625,0 -0.96093,-0.0703 -0.39844,-0.0469 -0.63282,-0.11719 -0.23437,-0.0937 -0.32812,-0.23437 -0.0937,-0.16406 -0.0937,-0.32813 v -28.07812 q 0,-0.91406 0.46875,-1.26563 0.49219,-0.375 1.03125,-0.375 h 13.64062 q 0.16407,0 0.30469,0.0937 0.16406,0.0937 0.28125,0.30469 0.11719,0.21094 0.16406,0.5625 0.0469,0.32813 0.0469,0.77344 z"
         style=""
         id="path946" />
      <path
         d="m 461.28906,150.33984 q 0,0.1875 -0.0703,0.32813 -0.0703,0.14062 -0.30469,0.23437 -0.23437,0.0937 -0.65625,0.14063 -0.42187,0.0469 -1.125,0.0469 -0.60937,0 -1.00781,-0.0469 -0.375,-0.0469 -0.60938,-0.14063 -0.23437,-0.11718 -0.375,-0.30468 -0.11718,-0.1875 -0.21093,-0.46875 l -2.78907,-7.14844 q -0.49218,-1.21875 -1.03125,-2.22656 -0.51562,-1.03125 -1.24218,-1.75782 -0.72657,-0.75 -1.71094,-1.14843 -0.98438,-0.42188 -2.36719,-0.42188 h -2.69531 v 12.91406 q 0,0.1875 -0.11719,0.32813 -0.0937,0.14062 -0.32812,0.23437 -0.21094,0.0703 -0.60938,0.11719 -0.375,0.0703 -0.96094,0.0703 -0.58593,0 -0.98437,-0.0703 -0.375,-0.0469 -0.60938,-0.11719 -0.23437,-0.0937 -0.32812,-0.23437 -0.0937,-0.14063 -0.0937,-0.32813 v -28.07812 q 0,-0.91406 0.46875,-1.26563 0.49219,-0.375 1.03125,-0.375 h 6.44531 q 1.14844,0 1.89844,0.0703 0.77344,0.0469 1.38281,0.11718 1.75781,0.30469 3.09375,0.96094 1.35938,0.65625 2.27344,1.66406 0.91406,1.00782 1.35937,2.32032 0.46875,1.28906 0.46875,2.85937 0,1.52344 -0.42187,2.74219 -0.39844,1.19531 -1.17188,2.13281 -0.77343,0.91406 -1.85156,1.59375 -1.07812,0.67969 -2.41406,1.14844 0.75,0.32812 1.35937,0.84375 0.60938,0.49219 1.125,1.19531 0.53907,0.70313 1.00782,1.61719 0.46875,0.91406 0.9375,2.0625 l 2.71875,6.67969 q 0.32812,0.84375 0.42187,1.19531 0.0937,0.32812 0.0937,0.51562 z m -6.07031,-21.30468 q 0,-1.78125 -0.79688,-3 -0.79687,-1.24219 -2.67187,-1.78125 -0.58594,-0.16407 -1.33594,-0.23438 -0.72656,-0.0703 -1.92187,-0.0703 h -3.39844 v 10.21875 h 3.9375 q 1.59375,0 2.74219,-0.375 1.17187,-0.39844 1.94531,-1.07813 0.77344,-0.70312 1.125,-1.64062 0.375,-0.9375 0.375,-2.03906 z"
         style=""
         id="path948" />
      <path
         d="m 492.0625,135.43359 q 0,3.67969 -0.86719,6.63282 -0.86719,2.95312 -2.60156,5.03906 -1.71094,2.0625 -4.3125,3.1875 -2.60156,1.10156 -6.07031,1.10156 -3.42188,0 -5.92969,-1.00781 -2.48438,-1.03125 -4.125,-2.97656 -1.61719,-1.94532 -2.41406,-4.82813 -0.79688,-2.88281 -0.79688,-6.63281 0,-3.58594 0.86719,-6.51563 0.86719,-2.92968 2.60156,-4.96875 1.73438,-2.0625 4.33594,-3.16406 2.60156,-1.125 6.07031,-1.125 3.35156,0 5.83594,1.00781 2.48437,1.00782 4.125,2.95313 1.66406,1.92187 2.46094,4.78125 0.82031,2.83594 0.82031,6.51562 z m -4.24219,0.28125 q 0,-2.57812 -0.46875,-4.78125 -0.44531,-2.22656 -1.52344,-3.84375 -1.05468,-1.64062 -2.83593,-2.55468 -1.78125,-0.91407 -4.40625,-0.91407 -2.625,0 -4.40625,0.98438 -1.78125,0.98437 -2.90625,2.625 -1.10157,1.64062 -1.59375,3.84375 -0.46875,2.17969 -0.46875,4.59375 0,2.67187 0.44531,4.92187 0.44531,2.25 1.5,3.89063 1.05469,1.61719 2.8125,2.53125 1.78125,0.89062 4.45312,0.89062 2.64844,0 4.45313,-0.98437 1.80469,-0.98438 2.90625,-2.64844 1.10156,-1.6875 1.57031,-3.89062 0.46875,-2.20313 0.46875,-4.66407 z"
         style=""
         id="path950" />
      <path
         d="m 521.35937,149.28516 q 0,0.46875 -0.16406,0.79687 -0.14062,0.32813 -0.39844,0.53906 -0.23437,0.21094 -0.53906,0.30469 -0.30469,0.0937 -0.60937,0.0937 h -1.28907 q -0.60937,0 -1.07812,-0.11719 -0.44531,-0.14062 -0.86719,-0.46875 -0.39844,-0.35156 -0.82031,-0.9375 -0.39844,-0.58593 -0.89063,-1.5 l -9.5625,-17.25 q -0.75,-1.33593 -1.52343,-2.78906 -0.75,-1.47656 -1.40625,-2.85937 h -0.0469 q 0.0469,1.6875 0.0703,3.44531 0.0234,1.75781 0.0234,3.49219 v 18.30468 q 0,0.16407 -0.0937,0.32813 -0.0937,0.14062 -0.32812,0.23437 -0.21094,0.0703 -0.58594,0.11719 -0.35156,0.0703 -0.91406,0.0703 -0.5625,0 -0.9375,-0.0703 -0.35157,-0.0469 -0.5625,-0.11719 -0.21094,-0.0937 -0.30469,-0.23437 -0.0937,-0.16406 -0.0937,-0.32813 v -27.98437 q 0,-0.9375 0.51562,-1.33594 0.51563,-0.39844 1.125,-0.39844 H 502 q 0.67969,0 1.125,0.11719 0.46875,0.11719 0.82031,0.39844 0.375,0.25781 0.70313,0.75 0.35156,0.46875 0.75,1.19531 l 7.35937,13.3125 q 0.67969,1.21875 1.3125,2.39063 0.63281,1.14843 1.21875,2.27343 0.58594,1.125 1.14844,2.22657 0.58594,1.07812 1.14844,2.17968 h 0.0234 q -0.0469,-1.85156 -0.0703,-3.84375 0,-2.01562 0,-3.86718 v -16.45313 q 0,-0.16406 0.0937,-0.30469 0.0937,-0.14062 0.30469,-0.23437 0.23437,-0.11719 0.58594,-0.16406 0.375,-0.0469 0.96093,-0.0469 0.51563,0 0.89063,0.0469 0.375,0.0469 0.58594,0.16406 0.21093,0.0937 0.30468,0.23437 0.0937,0.14063 0.0937,0.30469 z"
         style=""
         id="path952" />
      <path
         d="m 548.47656,122.35547 q 0,0.44531 -0.0469,0.77344 -0.0469,0.32812 -0.16407,0.53906 -0.0937,0.1875 -0.25781,0.28125 -0.14062,0.0937 -0.32812,0.0937 h -8.53125 v 26.29687 q 0,0.1875 -0.0937,0.32813 -0.0937,0.14062 -0.32813,0.23437 -0.23437,0.0703 -0.63281,0.11719 -0.375,0.0703 -0.96094,0.0703 -0.5625,0 -0.96094,-0.0703 -0.39843,-0.0469 -0.63281,-0.11719 -0.23437,-0.0937 -0.32812,-0.23437 -0.0937,-0.14063 -0.0937,-0.32813 v -26.29687 h -8.53125 q -0.1875,0 -0.35157,-0.0937 -0.14062,-0.0937 -0.23437,-0.28125 -0.0937,-0.21094 -0.16406,-0.53906 -0.0469,-0.32813 -0.0469,-0.77344 0,-0.44531 0.0469,-0.77344 0.0703,-0.35156 0.16406,-0.5625 0.0937,-0.21094 0.23437,-0.30469 0.16407,-0.0937 0.35157,-0.0937 h 21.09375 q 0.1875,0 0.32812,0.0937 0.16406,0.0937 0.25781,0.30469 0.11719,0.21094 0.16407,0.5625 0.0469,0.32813 0.0469,0.77344 z"
         style=""
         id="path954" />
    </g>
    <g
       id="g854"
       transform="matrix(0.21370422,0,0,0.21398068,73.979869,58.306785)">
      <path
         id="path6"
         d="m 41,4 c 9.67,0 19.33,0 29,0 0,3.67 0,7.33 0,11 -9.67,0 -19.33,0 -29,0 0,-3.67 0,-7.33 0,-11 z"
         inkscape:connector-curvature="0"
         style="fill:#b5101c" />
      <path
         id="path8"
         d="M 80.68,5.56 C 86.03,3.14 92.72,2.95 97.86,6 c 3.88,2.38 4.56,7.31 4.46,11.47 -2.57,0 -5.14,0 -7.7,0.01 -0.1,-2.14 -0.06,-4.62 -1.74,-6.23 -2.9,-2.52 -8.26,-2.15 -10.16,1.42 -1.45,3.1 -0.98,7.49 2.12,9.43 5.27,3.65 12.92,3.49 16.8,9.14 2.77,4.56 2.41,10.69 0.04,15.35 -2.37,4.48 -7.82,6.07 -12.56,6.12 C 84.86,52.93 80.16,52.19 77.08,48.97 74.01,45.81 73.55,41.19 73.45,37.01 76.01,37 78.58,37 81.15,37 c 0.14,3.04 0.24,6.73 3,8.67 3.45,2.08 9.15,1.63 10.99,-2.41 1.52,-3.51 0.49,-8.44 -3.19,-10.17 C 86.81,30.63 80.42,30.05 76.6,25.37 72.38,19.27 73.59,9.01 80.68,5.56 Z"
         inkscape:connector-curvature="0"
         style="fill:#231f20" />
      <path
         id="path10"
         d="M 4.76,4.76 C 15.07,4.75 25.39,4.77 35.7,4.75 c 0,3.5 0,7 0,10.5 -3.08,-0.01 -6.16,-0.01 -9.24,-0.01 0.03,12.15 -0.01,24.31 0.03,36.46 -4.16,-0.01 -8.32,0 -12.49,0 -0.01,-12.15 0.01,-24.31 0,-36.46 -3.08,0 -6.16,0 -9.24,0 0,-3.49 0,-6.99 0,-10.48 z"
         inkscape:connector-curvature="0"
         style="fill:#231f20" />
      <path
         id="path12"
         transform="scale(0.8)"
         d="m 148.15039,5.9375 c -5.7375,19.55 -11.36289,39.137109 -16.96289,58.724609 2.625,-0.025 5.24922,-0.03633 7.88672,-0.04883 1.3875,-5.3 2.85039,-10.575781 4.27539,-15.863281 h 18.45117 l 4.16211,15.863281 c 2.6,0.0125 5.21172,0.025 7.82422,0.0625 -5.15,-19.6 -10.51133,-39.150781 -15.73633,-58.738281 -3.3,0.0125 -6.60039,0.0125 -9.90039,0 z m 4.72461,8.761719 c 2.55,9.25 4.86172,18.550781 7.38672,27.800781 -5.1,0 -10.19883,0.01211 -15.29883,-0.02539 2.5375,-9.2875 5.36211,-18.48789 7.91211,-27.775391 z"
         inkscape:connector-curvature="0" />
      <path
         id="path14"
         d="m 142,4.76 c 8.16,-0.01 16.32,0.01 24.47,-0.01 0,1.75 0,3.5 0,5.25 -6.16,0 -12.31,0 -18.47,0 0,4.84 -0.01,9.69 0.01,14.53 5.82,-0.01 11.64,0 17.47,-0.01 -0.01,1.83 -0.01,3.65 -0.01,5.48 -5.82,0 -11.65,0 -17.47,0 0,7.23 0,14.47 0,21.7 -2,0 -4,0 -6,0 0,-15.65 0,-31.29 0,-46.94 z"
         inkscape:connector-curvature="0"
         style="fill:#231f20" />
      <path
         id="path18"
         d="m 41,22 c 9.33,0 18.67,0 28,0 0,3.67 0,7.33 0,11 -9.33,0 -18.67,0 -28,0 0,-3.67 0,-7.33 0,-11 z"
         inkscape:connector-curvature="0"
         style="fill:#b5101c" />
      <path
         id="path20"
         d="m 41,41 c 9.67,0 19.33,0 29,0 0,3.67 0,7.33 0,11 -9.67,0 -19.33,0 -29,0 0,-3.67 0,-7.33 0,-11 z"
         inkscape:connector-curvature="0"
         style="fill:#b5101c" />
    </g>
    <path
       style="fill:#397b20;stroke-width:0.17509952"
       d="m 65.900822,73.075801 -20.727984,-0.04481 -2.7e-5,-1.189911 -2.7e-5,-1.18991 25.247319,0.03828 c 13.886027,0.02105 28.317407,0.08988 32.069757,0.152956 l 6.82242,0.114681 v 1.128208 1.128208 l -11.341746,-0.04644 c -6.237952,-0.02554 -20.669322,-0.06661 -32.069712,-0.09125 z"
       id="path927" />
    <path
       style="fill:#397b20;stroke-width:0.17509952"
       d="M 45.172838,67.564362 V 66.32964 H 58.904584 72.63633 v 1.234722 1.234723 H 58.904584 45.172838 Z"
       id="path925" />
    <path
       style="fill:#397b20;stroke-width:0.17509952"
       d="m 45.172838,63.331028 v -1.234721 h 12.34119 12.341189 v 1.234721 1.234722 H 57.514028 45.172838 Z"
       id="path923" />
    <path
       style="fill:#397b20;stroke-width:0.17509952"
       d="M 45.172838,59.097695 V 57.862973 H 56.3842 67.595563 v 1.234722 1.234722 H 56.3842 45.172838 Z"
       id="path3746-5" />
  </g>
</svg>
