<?xml version="1.0" encoding="UTF-8" standalone="no"?>
<!-- Created with Inkscape (http://www.inkscape.org/) -->

<svg
   xmlns:dc="http://purl.org/dc/elements/1.1/"
   xmlns:cc="http://creativecommons.org/ns#"
   xmlns:rdf="http://www.w3.org/1999/02/22-rdf-syntax-ns#"
   xmlns:svg="http://www.w3.org/2000/svg"
   xmlns="http://www.w3.org/2000/svg"
   xmlns:sodipodi="http://sodipodi.sourceforge.net/DTD/sodipodi-0.dtd"
   xmlns:inkscape="http://www.inkscape.org/namespaces/inkscape"
   width="118.7695mm"
   height="32.961994mm"
   viewBox="0 0 118.7695 32.961994"
   version="1.1"
   id="svg8"
   inkscape:version="0.92.4 (5da689c313, 2019-01-14)"
   sodipodi:docname="vaia_front.svg">
  <defs
     id="defs2" />
  <sodipodi:namedview
     id="base"
     pagecolor="#ffffff"
     bordercolor="#666666"
     borderopacity="1.0"
     inkscape:pageopacity="0.0"
     inkscape:pageshadow="2"
     inkscape:zoom="1.4"
     inkscape:cx="285.80549"
     inkscape:cy="15.748709"
     inkscape:document-units="mm"
     inkscape:current-layer="layer1"
     showgrid="false"
     inkscape:window-width="1920"
     inkscape:window-height="950"
     inkscape:window-x="-9"
     inkscape:window-y="-9"
     inkscape:window-maximized="1"
     fit-margin-left="1"
     fit-margin-top="1"
     fit-margin-bottom="1"
     fit-margin-right="1" />
  <metadata
     id="metadata5">
    <rdf:RDF>
      <cc:Work
         rdf:about="">
        <dc:format>image/svg+xml</dc:format>
        <dc:type
           rdf:resource="http://purl.org/dc/dcmitype/StillImage" />
        <dc:title></dc:title>
      </cc:Work>
    </rdf:RDF>
  </metadata>
  <g
     inkscape:label="Livello 1"
     inkscape:groupmode="layer"
     id="layer1"
     transform="translate(-44.415731,-26.460319)">
    <g
       id="g3742"
       transform="translate(25.40825,25.144239)">
      <path
         style="fill:#397b20;stroke-width:0.17638889"
         d="m 99.364701,22.289368 c -0.065,-0.05597 -58.718753,-0.285431 -73.051262,-0.285789 l -6.305903,-1.57e-4 v -1.243575 -1.243574 l 2.601736,0.09506 c 1.430955,0.05229 18.595799,0.135799 38.144098,0.185588 19.548301,0.04979 44.65064,0.142557 55.78299,0.206153 l 20.24062,0.115628 v 1.12029 1.120288 l -18.67096,-0.0047 C 107.837,22.35198 99.403401,22.32265 99.364701,22.28934 Z m -58.32279,-4.475896 -21.034375,-0.04481 -2.8e-5,-1.189911 -2.7e-5,-1.18991 25.620513,0.03828 c 14.091283,0.02105 28.735983,0.08988 32.543777,0.152956 l 6.92327,0.114681 v 1.128208 1.128208 l -11.50938,-0.04644 c -6.330156,-0.02554 -20.974844,-0.06661 -32.54375,-0.09125 z M 20.007536,12.302033 v -1.234722 h 13.934722 13.934723 v 1.234722 1.234723 H 33.942258 20.007536 Z m 0,-4.2333335 v -1.234722 h 12.523611 12.523611 v 1.234722 1.234722 H 32.531147 20.007536 Z m 0,-4.233333 v -1.234722 h 11.377083 11.377084 v 1.234722 1.234722 H 31.384619 20.007536 Z"
         id="path3746"
         inkscape:connector-curvature="0"
         sodipodi:nodetypes="csccccssccccccccccsscccsccccccccccccccccccccccccccccc" />
    </g>
    <g
       aria-label="VAIA "
       transform="matrix(0.41476587,0,0,0.40000064,-47.980552,-19.949748)"
       style="font-style:normal;font-variant:normal;font-weight:normal;font-stretch:normal;font-size:38.81623077px;line-height:1.25;font-family:'Arial Rounded MT Bold';-inkscape-font-specification:'Arial Rounded MT Bold, Normal';font-variant-ligatures:normal;font-variant-caps:normal;font-variant-numeric:normal;font-feature-settings:normal;text-align:start;letter-spacing:0px;word-spacing:0px;writing-mode:lr-tb;text-anchor:start;fill:#aa0000;fill-opacity:1;stroke:none"
       id="flowRoot820">
      <path
         d="m 295.00279,122.22086 6.29248,18.63103 6.31143,-18.7637 q 0.49278,-1.47836 0.73917,-2.04695 0.24639,-0.58755 0.81499,-1.04243 0.5686,-0.47383 1.55417,-0.47383 0.72022,0 1.32672,0.36011 0.62546,0.36011 0.96662,0.96661 0.36011,0.58755 0.36011,1.19406 0,0.41697 -0.11372,0.90975 -0.11372,0.47383 -0.2843,0.94766 -0.17058,0.45488 -0.34116,0.94767 l -6.7284,18.1572 q -0.36011,1.04243 -0.72022,1.99009 -0.36011,0.92871 -0.83394,1.64893 -0.47383,0.70127 -1.26987,1.15615 -0.77708,0.45488 -1.91428,0.45488 -1.13719,0 -1.93323,-0.45488 -0.77708,-0.43593 -1.26986,-1.15615 -0.47383,-0.73918 -0.83394,-1.66789 -0.36012,-0.9287 -0.72023,-1.97113 l -6.61468,-18.00558 q -0.17058,-0.49278 -0.36011,-0.96661 -0.17058,-0.47383 -0.30325,-1.02348 -0.11372,-0.54964 -0.11372,-0.92871 0,-0.96661 0.77708,-1.76265 0.77708,-0.79603 1.95219,-0.79603 1.44044,0 2.02799,0.8908 0.60651,0.87185 1.23196,2.80508 z"
         style=""
         id="path830" />
      <path
         d="m 333.3831,143.63802 -1.32673,-3.4874 h -11.29613 l -1.32672,3.56321 q -0.77709,2.08486 -1.32673,2.82403 -0.54965,0.72023 -1.80056,0.72023 -1.06138,0 -1.87637,-0.77709 -0.81499,-0.77708 -0.81499,-1.76265 0,-0.5686 0.18953,-1.1751 0.18954,-0.6065 0.62546,-1.68684 l 7.10746,-18.04348 q 0.30326,-0.77708 0.72023,-1.85742 0.43592,-1.09929 0.90975,-1.81951 0.49279,-0.72022 1.26987,-1.15615 0.79604,-0.45487 1.95218,-0.45487 1.1751,0 1.95219,0.45487 0.79603,0.43593 1.26986,1.1372 0.49279,0.70127 0.81499,1.51626 0.34116,0.79603 0.8529,2.14171 l 7.25909,17.92977 q 0.85289,2.04695 0.85289,2.97565 0,0.96662 -0.81498,1.78161 -0.79604,0.79604 -1.93324,0.79604 -0.66336,0 -1.13719,-0.2464 -0.47383,-0.22744 -0.79604,-0.62545 -0.3222,-0.41698 -0.70127,-1.25092 -0.36011,-0.85289 -0.62545,-1.4973 z m -11.14451,-7.71397 h 8.30152 l -4.18866,-11.46671 z"
         style=""
         id="path832" />
      <path
         d="m 343.73157,143.82755 v -21.89099 q 0,-1.70579 0.77708,-2.55869 0.77708,-0.85289 2.00904,-0.85289 1.26987,0 2.04695,0.85289 0.79604,0.83394 0.79604,2.55869 v 21.89099 q 0,1.72474 -0.79604,2.57764 -0.77708,0.8529 -2.04695,0.8529 -1.213,0 -2.00904,-0.8529 -0.77708,-0.87185 -0.77708,-2.57764 z"
         style=""
         id="path834" />
      <path
         d="m 373.41234,143.63802 -1.32673,-3.4874 h -11.29613 l -1.32672,3.56321 q -0.77709,2.08486 -1.32673,2.82403 -0.54964,0.72023 -1.80056,0.72023 -1.06138,0 -1.87637,-0.77709 -0.81499,-0.77708 -0.81499,-1.76265 0,-0.5686 0.18954,-1.1751 0.18953,-0.6065 0.62545,-1.68684 l 7.10747,-18.04348 q 0.30325,-0.77708 0.72022,-1.85742 0.43592,-1.09929 0.90975,-1.81951 0.49279,-0.72022 1.26987,-1.15615 0.79604,-0.45487 1.95218,-0.45487 1.17511,0 1.95219,0.45487 0.79603,0.43593 1.26987,1.1372 0.49278,0.70127 0.81498,1.51626 0.34116,0.79603 0.8529,2.14171 l 7.25909,17.92977 q 0.8529,2.04695 0.8529,2.97565 0,0.96662 -0.81499,1.78161 -0.79604,0.79604 -1.93323,0.79604 -0.66337,0 -1.1372,-0.2464 -0.47383,-0.22744 -0.79603,-0.62545 -0.32221,-0.41698 -0.70127,-1.25092 -0.36012,-0.85289 -0.62546,-1.4973 z m -11.1445,-7.71397 h 8.30151 l -4.18866,-11.46671 z"
         style=""
         id="path836" />
    </g>
    <g
       aria-label="FRONT"
       transform="matrix(0.37992208,0,0,0.4038178,-44.210598,-14.021928)"
       style="font-style:normal;font-variant:normal;font-weight:normal;font-stretch:normal;font-size:36.02642822px;line-height:1.25;font-family:'Arial Rounded MT Bold';-inkscape-font-specification:'Arial Rounded MT Bold, Normal';font-variant-ligatures:normal;font-variant-caps:normal;font-variant-numeric:normal;font-feature-settings:normal;text-align:start;letter-spacing:0px;word-spacing:0px;writing-mode:lr-tb;text-anchor:start;fill:#aa0000;fill-opacity:1;stroke:none"
       id="flowRoot828">
      <path
         d="m 433.22431,119.65463 h -10.29076 v 6.59663 h 8.60202 q 1.19619,0 1.77669,0.54533 0.5981,0.52773 0.5981,1.42487 0,0.89714 -0.5981,1.42487 -0.59809,0.52773 -1.77669,0.52773 h -8.60202 v 8.49647 q 0,1.61838 -0.73882,2.40997 -0.72123,0.77401 -1.86465,0.77401 -1.16101,0 -1.89983,-0.7916 -0.72123,-0.7916 -0.72123,-2.39238 v -19.84268 q 0,-1.12583 0.33423,-1.82947 0.33423,-0.72123 1.03787,-1.03787 0.72123,-0.33423 1.82947,-0.33423 h 12.31372 q 1.24896,0 1.84705,0.56292 0.61569,0.54532 0.61569,1.44246 0,0.91473 -0.61569,1.47765 -0.59809,0.54532 -1.84705,0.54532 z"
         style=""
         id="path839" />
      <path
         d="m 446.5759,130.38516 h -1.82947 v 8.28537 q 0,1.63597 -0.72123,2.40997 -0.72123,0.77401 -1.88224,0.77401 -1.24897,0 -1.93502,-0.80919 -0.68605,-0.80919 -0.68605,-2.37479 v -19.84268 q 0,-1.68874 0.75642,-2.44515 0.75641,-0.75642 2.44515,-0.75642 h 8.49647 q 1.7591,0 3.00806,0.15832 1.24897,0.14073 2.25166,0.5981 1.21378,0.51014 2.1461,1.46005 0.93233,0.94992 1.40728,2.21647 0.49255,1.24897 0.49255,2.65625 0,2.88493 -1.63596,4.60885 -1.61838,1.72392 -4.92549,2.44515 1.38969,0.73882 2.65624,2.18129 1.26656,1.44246 2.25166,3.07843 1.00269,1.61837 1.54801,2.9377 0.56291,1.30174 0.56291,1.79429 0,0.51013 -0.33423,1.02027 -0.31664,0.49255 -0.87955,0.77401 -0.56291,0.29905 -1.30174,0.29905 -0.87955,0 -1.47764,-0.42219 -0.5981,-0.40459 -1.03787,-1.03787 -0.42219,-0.63327 -1.16101,-1.86465 l -2.09333,-3.48302 q -1.12583,-1.91742 -2.02297,-2.92011 -0.87955,-1.00269 -1.79429,-1.3721 -0.91473,-0.36941 -2.30442,-0.36941 z m 2.99047,-10.83608 h -4.81994 v 7.08919 h 4.67921 q 1.88224,0 3.16639,-0.31664 1.28414,-0.33423 1.9526,-1.10824 0.68605,-0.79159 0.68605,-2.16369 0,-1.07306 -0.54532,-1.88224 -0.54532,-0.82678 -1.51283,-1.23138 -0.91473,-0.387 -3.60616,-0.387 z"
         style=""
         id="path841" />
      <path
         d="m 476.79728,115.18651 q 4.01076,0 6.8781,1.63596 2.88493,1.61838 4.36257,4.62644 1.47765,2.99048 1.47765,7.03642 0,2.99047 -0.80919,5.43562 -0.80919,2.44516 -2.42756,4.23944 -1.61838,1.79429 -3.97557,2.7442 -2.3572,0.94992 -5.40045,0.94992 -3.02566,0 -5.41804,-0.96751 -2.39238,-0.9851 -3.99316,-2.76179 -1.60078,-1.77669 -2.42756,-4.27462 -0.80919,-2.49793 -0.80919,-5.40045 0,-2.97288 0.84437,-5.45322 0.86196,-2.48033 2.48033,-4.22184 1.61838,-1.74151 3.94039,-2.65625 2.32202,-0.93232 5.27731,-0.93232 z m 7.42342,13.26363 q 0,-2.83215 -0.91474,-4.90789 -0.91473,-2.07575 -2.62106,-3.13121 -1.68874,-1.07305 -3.88762,-1.07305 -1.5656,0 -2.90252,0.59809 -1.31932,0.58051 -2.28683,1.70633 -0.94992,1.12583 -1.51283,2.88493 -0.54532,1.74152 -0.54532,3.9228 0,2.19888 0.54532,3.97558 0.56291,1.77669 1.5656,2.95529 1.02028,1.16101 2.32202,1.74151 1.31933,0.5805 2.88493,0.5805 2.00538,0 3.67652,-1.00268 1.68874,-1.00269 2.67384,-3.09603 1.00269,-2.09333 1.00269,-5.15417 z"
         style=""
         id="path843" />
      <path
         d="m 500.82663,118.31771 10.04448,15.19865 v -15.33938 q 0,-1.49524 0.63328,-2.23406 0.65086,-0.75641 1.74151,-0.75641 1.12582,0 1.77669,0.75641 0.65087,0.73882 0.65087,2.23406 v 20.28246 q 0,3.39507 -2.81456,3.39507 -0.70365,0 -1.26656,-0.21109 -0.56291,-0.19351 -1.05546,-0.63328 -0.49255,-0.43978 -0.91473,-1.02028 -0.42219,-0.5981 -0.84437,-1.21378 l -9.79821,-15.02274 v 15.11069 q 0,1.47765 -0.68605,2.23406 -0.68605,0.75642 -1.7591,0.75642 -1.10823,0 -1.77669,-0.75642 -0.66846,-0.774 -0.66846,-2.23406 v -19.89545 q 0,-1.26656 0.28145,-1.98779 0.33423,-0.79159 1.10824,-1.28414 0.774,-0.51014 1.67115,-0.51014 0.70364,0 1.19619,0.22868 0.51014,0.22868 0.87955,0.61569 0.387,0.387 0.774,1.00269 0.4046,0.61568 0.82678,1.28414 z"
         style=""
         id="path845" />
      <path
         d="m 538.13721,119.93608 h -5.6995 v 18.73445 q 0,1.61838 -0.72123,2.40997 -0.72123,0.77401 -1.86465,0.77401 -1.16101,0 -1.89983,-0.7916 -0.72123,-0.7916 -0.72123,-2.39238 v -18.73445 h -5.6995 q -1.33691,0 -1.98778,-0.5805 -0.65087,-0.59809 -0.65087,-1.5656 0,-1.00269 0.66846,-1.58319 0.68605,-0.58051 1.97019,-0.58051 h 16.60594 q 1.35451,0 2.00537,0.5981 0.66846,0.59809 0.66846,1.5656 0,0.96751 -0.66846,1.5656 -0.66846,0.5805 -2.00537,0.5805 z"
         style=""
         id="path847" />
    </g>
    <g
       id="g854"
       transform="matrix(0.1914992,0,0,0.19084783,44.50425,48.355893)">
      <path
         id="path6"
         d="m 41,4 c 9.67,0 19.33,0 29,0 0,3.67 0,7.33 0,11 -9.67,0 -19.33,0 -29,0 0,-3.67 0,-7.33 0,-11 z"
         inkscape:connector-curvature="0"
         style="fill:#b5101c" />
      <path
         id="path8"
         d="M 80.68,5.56 C 86.03,3.14 92.72,2.95 97.86,6 c 3.88,2.38 4.56,7.31 4.46,11.47 -2.57,0 -5.14,0 -7.7,0.01 -0.1,-2.14 -0.06,-4.62 -1.74,-6.23 -2.9,-2.52 -8.26,-2.15 -10.16,1.42 -1.45,3.1 -0.98,7.49 2.12,9.43 5.27,3.65 12.92,3.49 16.8,9.14 2.77,4.56 2.41,10.69 0.04,15.35 -2.37,4.48 -7.82,6.07 -12.56,6.12 C 84.86,52.93 80.16,52.19 77.08,48.97 74.01,45.81 73.55,41.19 73.45,37.01 76.01,37 78.58,37 81.15,37 c 0.14,3.04 0.24,6.73 3,8.67 3.45,2.08 9.15,1.63 10.99,-2.41 1.52,-3.51 0.49,-8.44 -3.19,-10.17 C 86.81,30.63 80.42,30.05 76.6,25.37 72.38,19.27 73.59,9.01 80.68,5.56 Z"
         inkscape:connector-curvature="0"
         style="fill:#231f20" />
      <path
         id="path10"
         d="M 4.76,4.76 C 15.07,4.75 25.39,4.77 35.7,4.75 c 0,3.5 0,7 0,10.5 -3.08,-0.01 -6.16,-0.01 -9.24,-0.01 0.03,12.15 -0.01,24.31 0.03,36.46 -4.16,-0.01 -8.32,0 -12.49,0 -0.01,-12.15 0.01,-24.31 0,-36.46 -3.08,0 -6.16,0 -9.24,0 0,-3.49 0,-6.99 0,-10.48 z"
         inkscape:connector-curvature="0"
         style="fill:#231f20" />
      <path
         id="path12"
         transform="scale(0.8)"
         d="m 148.15039,5.9375 c -5.7375,19.55 -11.36289,39.137109 -16.96289,58.724609 2.625,-0.025 5.24922,-0.03633 7.88672,-0.04883 1.3875,-5.3 2.85039,-10.575781 4.27539,-15.863281 h 18.45117 l 4.16211,15.863281 c 2.6,0.0125 5.21172,0.025 7.82422,0.0625 -5.15,-19.6 -10.51133,-39.150781 -15.73633,-58.738281 -3.3,0.0125 -6.60039,0.0125 -9.90039,0 z m 4.72461,8.761719 c 2.55,9.25 4.86172,18.550781 7.38672,27.800781 -5.1,0 -10.19883,0.01211 -15.29883,-0.02539 2.5375,-9.2875 5.36211,-18.48789 7.91211,-27.775391 z"
         inkscape:connector-curvature="0" />
      <path
         id="path14"
         d="m 142,4.76 c 8.16,-0.01 16.32,0.01 24.47,-0.01 0,1.75 0,3.5 0,5.25 -6.16,0 -12.31,0 -18.47,0 0,4.84 -0.01,9.69 0.01,14.53 5.82,-0.01 11.64,0 17.47,-0.01 -0.01,1.83 -0.01,3.65 -0.01,5.48 -5.82,0 -11.65,0 -17.47,0 0,7.23 0,14.47 0,21.7 -2,0 -4,0 -6,0 0,-15.65 0,-31.29 0,-46.94 z"
         inkscape:connector-curvature="0"
         style="fill:#231f20" />
      <path
         id="path18"
         d="m 41,22 c 9.33,0 18.67,0 28,0 0,3.67 0,7.33 0,11 -9.33,0 -18.67,0 -28,0 0,-3.67 0,-7.33 0,-11 z"
         inkscape:connector-curvature="0"
         style="fill:#b5101c" />
      <path
         id="path20"
         d="m 41,41 c 9.67,0 19.33,0 29,0 0,3.67 0,7.33 0,11 -9.67,0 -19.33,0 -29,0 0,-3.67 0,-7.33 0,-11 z"
         inkscape:connector-curvature="0"
         style="fill:#b5101c" />
    </g>
  </g>
</svg>
